<?xml version="1.0" encoding="UTF-8" standalone="no"?>
<svg
   version="1.1"
   viewBox="0 0 32 32"
   xmlns="http://www.w3.org/2000/svg"
>
<g id="g26"    transform="matrix(0.76994659,0,0,0.75132409,4.1228358,4.4106827)">
        <g id="g10">
                <g id="g4">
                        <path    d="m 7.90625,10 c -2.7568359,0 -5,-2.2431641 -5,-5 0,-2.7568359 2.2431641,-5 5,-5 2.756836,0 5,2.2431641 5,5 0,2.7568359 -2.243164,5 -5,5 z m 0,-8 c -1.6542969,0 -3,1.3457031 -3,3 0,1.6542969 1.3457031,3 3,3 1.6542969,0 3,-1.3457031 3,-3 0,-1.6542969 -1.3457031,-3 -3,-3 z"    id="path2" />
                </g>
                <g    id="g8">
                        <path    d="M 9.3125,32 H 6.5 C 4.9755859,32 3.7177734,30.854492 3.5751953,29.335937 L 2.915039,23.074219 C 1.9287109,22.791504 1.1630859,21.966797 0.9833984,20.90918 L 0.7294921,19.412598 c -0.3603516,-2.118653 0.2294922,-4.274415 1.6152344,-5.916016 1.3867188,-1.641113 3.4130859,-2.58252 5.5615234,-2.58252 2.1484371,0 4.1767581,0.941407 5.5625001,2.583497 1.385742,1.641113 1.974609,3.796875 1.615234,5.91455 l -0.253906,1.497071 c -0.179688,1.057617 -0.945313,1.882324 -1.932617,2.165039 l -0.661133,6.272949 C 12.09668,30.854492 10.838867,32 9.3125,32 Z M 7.90625,12.914063 c -1.5576172,0 -3.0283203,0.682617 -4.0332031,1.873046 -1.0058594,1.19043 -1.4326172,2.754395 -1.171875,4.290039 l 0.2539063,1.497071 c 0.05957,0.351074 0.3603516,0.605469 0.7158203,0.605469 h 0.1552734 c 0.5117188,0 0.9404297,0.38623 0.9941406,0.895019 l 0.7441406,7.0625 C 5.6113281,29.633789 6.0126953,30 6.5,30 h 2.8125 c 0.4873047,0 0.888672,-0.365723 0.933594,-0.850586 l 0.746094,-7.074707 c 0.05371,-0.508789 0.482422,-0.895019 0.99414,-0.895019 h 0.155274 c 0.355468,0 0.657226,-0.254395 0.71582,-0.604493 l 0.253906,-1.497558 c 0.261719,-1.536133 -0.165039,-3.09961 -1.170898,-4.290039 -1.004883,-1.19043 -2.4755862,-1.873535 -4.03418,-1.873535 z"    id="path6" />
                </g>
        </g>
        <g    id="g24">
                <g    id="g14">
                        <path    d="M 30.375,12.914063 H 17.8125 c -0.552734,0 -1,-0.447754 -1,-1 0,-0.552247 0.447266,-1 1,-1 H 30.375 c 0.552734,0 1,0.447753 1,1 0,0.552246 -0.447266,1 -1,1 z"    id="path12" />
                </g>
                <g    id="g18">
                        <path    d="M 30.375,20.292969 H 17.8125 c -0.552734,0 -1,-0.447754 -1,-1 0,-0.552246 0.447266,-1 1,-1 H 30.375 c 0.552734,0 1,0.447754 1,1 0,0.552246 -0.447266,1 -1,1 z"    id="path16" />
                </g>
                <g    id="g22">
                        <path    d="M 30.375,27.671875 H 17.8125 c -0.552734,0 -1,-0.447754 -1,-1 0,-0.552246 0.447266,-1 1,-1 H 30.375 c 0.552734,0 1,0.447754 1,1 0,0.552246 -0.447266,1 -1,1 z"    id="path20" />
                </g>
        </g>
</g>
</svg>
