<?xml version="1.0" encoding="UTF-8" standalone="no"?>

<svg
   version="1.1"
   viewBox="0 0 32 32"
   xmlns="http://www.w3.org/2000/svg"
>
<g
   id="g10"
   transform="matrix(0.74170679,0,0,0.74690672,3.9884369,4.2462199)">
	<g
   id="g4">
		<path
   d="M 16,14 C 12.140137,14 9,10.859375 9,7 9,3.140625 12.140137,0 16,0 c 3.859863,0 7,3.140625 7,7 0,3.859375 -3.140137,7 -7,7 z M 16,2 c -2.756836,0 -5,2.2431641 -5,5 0,2.7568359 2.243164,5 5,5 2.756836,0 5,-2.2431641 5,-5 0,-2.7568359 -2.243164,-5 -5,-5 z"
   id="path2" />
	</g>
	<g
   id="g8">
		<path
   d="m 27,32 c -0.552246,0 -1,-0.447266 -1,-1 v -6.115234 c 0,-3.828125 -3.114258,-6.942383 -6.942383,-6.942383 H 12.942383 C 9.1142578,17.942383 6,21.056641 6,24.884766 V 31 C 6,31.552734 5.5522461,32 5,32 4.4477539,32 4,31.552734 4,31 v -6.115234 c 0,-4.930665 4.0117188,-8.942383 8.942383,-8.942383 h 6.115234 C 23.988281,15.942383 28,19.954102 28,24.884766 V 31 c 0,0.552734 -0.447754,1 -1,1 z"
   id="path6" />
	</g>
</g>
</svg>
